<svg width="371" height="427" viewBox="0 0 371 427" fill="none" xmlns="http://www.w3.org/2000/svg">
<path d="M185.5 426.088C287.949 426.088 371 420.156 371 412.838C371 405.52 287.949 399.588 185.5 399.588C83.0512 399.588 0 405.52 0 412.838C0 420.156 83.0512 426.088 185.5 426.088Z" fill="#4629F2" fill-opacity="0.66"/>
<path d="M203.629 253.454C203.629 232.592 199.745 213.551 192.895 199.261C198.12 197.651 203.344 196.041 210.629 194.595C216.26 206.343 221.492 228.836 221.492 249.05C215.634 251.139 209.6 252.736 203.629 253.454Z" fill="white" stroke="#2C223B" stroke-width="3" stroke-miterlimit="10" stroke-linecap="round" stroke-linejoin="round"/>
<path d="M200.041 218.565C205.698 218.751 211.386 217.931 216.76 216.154" stroke="#2C223B" stroke-width="3" stroke-miterlimit="10" stroke-linecap="round" stroke-linejoin="round"/>
<path d="M202.9 235.455C208.479 237.214 214.783 236.524 219.849 233.6" stroke="#2C223B" stroke-width="3" stroke-miterlimit="10" stroke-linecap="round" stroke-linejoin="round"/>
<path d="M263.417 242.769C261.78 240.216 259.712 237.939 257.398 235.995C252.119 231.553 244.544 231.134 238.882 235.153C225.855 244.417 207.471 245.701 191.357 241.034C181.552 238.191 171.008 242.675 166.29 252.131C166.218 252.281 166.135 252.439 166.062 252.599C163.414 258.057 166.035 264.611 171.503 266.726C174.996 268.078 178.272 270.011 181.134 272.483C186.15 276.803 189.865 282.753 193.336 290.316C193.886 291.51 194.68 292.571 195.741 293.291C195.83 293.345 195.909 293.398 195.997 293.452C199.331 295.636 203.777 294.548 205.974 291.105C209.425 285.722 214.423 281.79 220.12 280.828C225.636 279.908 231.552 282.133 235.176 286.366C238.046 289.716 243.065 289.806 245.91 286.373C246.199 286.015 246.479 285.646 246.741 285.274C247.382 284.337 247.731 283.223 247.89 282.079C249.253 272.562 254.043 264.196 260.832 258.731C265.447 255.023 266.623 247.753 263.417 242.769ZM204.914 268.247C201.56 271.026 196.474 270.563 192.411 268.95C190.101 268.035 187.868 266.749 186.389 264.795C183.652 261.154 184.429 255.443 188.056 252.586C191.676 249.718 197.571 250.156 200.663 253.511C202.934 255.981 206.366 257.344 207.303 260.16C208.23 262.984 207.243 266.315 204.914 268.247ZM249.073 259.271C247.643 261.283 245.429 262.669 243.135 263.691C239.104 265.468 234.022 266.153 230.624 263.517C228.263 261.687 227.216 258.401 228.098 255.547C228.973 252.682 232.38 251.171 234.614 248.609C237.643 245.114 243.529 244.433 247.199 247.133C250.878 249.843 251.747 255.509 249.073 259.271Z" fill="white" stroke="#2C223B" stroke-width="3" stroke-miterlimit="10" stroke-linecap="round" stroke-linejoin="round"/>
<path d="M264.633 181.448C259.434 174.472 254.234 167.495 249.035 160.519C245.895 160.505 242.196 161.212 238.706 160.221C235.216 159.23 232.038 156.262 231.444 152.56C230.973 149.622 232.262 146.527 234.611 144.953C236.96 143.379 240.247 143.409 242.687 145.028C243.118 141.506 243.083 138.925 243.679 136.481C244.275 134.037 245.588 131.704 247.689 130.486C250.9 128.625 255.42 129.987 257.717 133.147C260.014 136.307 260.148 140.802 258.848 145.737C264.568 152.74 270.288 159.743 277.67 168.203C280.235 167.025 283.315 166.778 285.936 168.032C288.557 169.287 290.545 172.212 290.325 175.154C290.13 177.752 288.324 179.918 286.16 181.158C283.996 182.398 281.492 182.866 278.56 184.718C279.651 188.133 279.176 192.105 276.955 194.72C274.734 197.335 270.707 198.251 267.681 196.474C264.995 194.896 263.55 191.668 263.004 188.54C262.521 185.771 262.816 182.484 264.633 181.448Z" fill="white" stroke="#2C223B" stroke-width="3" stroke-miterlimit="10" stroke-linecap="round" stroke-linejoin="round"/>
<path d="M280.946 192.101C277.916 190.915 273.835 186.842 272.947 183.634C272.06 180.425 273.204 176.6 275.963 174.864C278.24 173.43 281.225 173.574 283.668 174.699C286.111 175.824 288.086 177.81 289.782 179.942C295.241 179.772 299.292 178.211 302.778 175.786C300.523 172.648 299.416 167.942 300.998 164.273C302.581 160.604 306.709 158.303 310.566 158.939C313.267 159.385 315.675 161.117 317.338 163.356C319.001 165.595 319.973 168.308 322.545 171.642C325.077 169.692 328.676 169.327 331.539 170.73C334.402 172.133 336.402 175.242 336.538 178.499C336.673 181.756 334.938 185.018 332.201 186.649C328.375 188.93 323.568 187.934 317.028 187.699C310.737 191.803 304.212 195.532 297.353 199.359C297.126 203.399 294.746 207.359 291.115 208.899C287.484 210.439 282.77 209.129 280.756 205.646C279.645 203.724 279.397 201.38 279.648 199.162C279.901 196.945 280.617 194.817 280.946 192.101Z" fill="white" stroke="#2C223B" stroke-width="3" stroke-miterlimit="10" stroke-linecap="round" stroke-linejoin="round"/>
<path d="M308.48 179.941C305.652 178.801 303.234 176.673 301.745 174.013" stroke="#2C223B" stroke-width="3" stroke-miterlimit="10" stroke-linecap="round" stroke-linejoin="round"/>
<path d="M332.308 174.709C326.935 177.556 320 176.317 315.162 172.633C310.324 168.95 307.387 163.206 305.958 157.295C304.528 151.385 304.462 145.242 305.182 139.731C304.504 126.309 301.366 113.016 295.969 100.708C295.144 98.8261 294.256 96.9341 293.964 94.8991C293.672 92.8651 294.069 90.6181 295.515 89.1581C298.124 86.5241 302.655 87.6081 305.751 89.6471C312.298 93.9591 316.2 101.462 317.822 109.132C319.444 116.801 319.049 124.735 319.628 132.409C325.305 120.3 328.736 107.143 329.695 93.8041C329.968 90.0081 330.443 85.5131 333.781 83.6831C336.19 82.3621 339.34 83.0931 341.446 84.8561C343.552 86.6191 344.779 89.2191 345.614 91.8361C348.875 102.049 346.798 113.809 341.185 122.981C343.307 121.34 346.301 120.904 348.803 121.871C351.305 122.838 353.227 125.175 354.78 128.521C358.914 127.4 363.471 130.012 365.377 133.848C367.284 137.684 366.876 142.363 365.172 146.292C363.468 150.222 360.645 154.41 356.412 156.405C356.357 162.287 354.399 169.135 349.522 172.424C344.647 175.713 338.133 176.427 332.308 174.709Z" fill="white" stroke="#2C223B" stroke-width="3" stroke-miterlimit="10" stroke-linecap="round" stroke-linejoin="round"/>
<path d="M310.075 143.452C315.072 139.171 318.677 133.29 320.225 126.895C320.628 125.23 320.942 123.436 322.104 122.176C323.695 120.45 326.522 120.305 328.606 121.384C330.69 122.463 332.113 124.516 333.04 126.672C336.136 133.869 334.053 142.958 329.104 147.379C332.914 150.002 335.601 154.204 336.383 158.764C337.165 163.324 336.033 168.181 333.315 171.924" fill="white"/>
<path d="M310.075 143.452C315.072 139.171 318.677 133.29 320.225 126.895C320.628 125.23 320.942 123.436 322.104 122.176C323.695 120.45 326.522 120.305 328.606 121.384C330.69 122.463 332.113 124.516 333.04 126.672C336.136 133.869 334.053 142.958 329.104 147.379C332.914 150.002 335.601 154.204 336.383 158.764C337.165 163.324 336.033 168.181 333.315 171.924" stroke="#2C223B" stroke-width="3" stroke-miterlimit="10" stroke-linecap="round" stroke-linejoin="round"/>
<path d="M329.414 147.227C326.837 150 322.462 150.921 318.985 149.422C315.508 147.923 313.175 144.109 313.423 140.331" stroke="#2C223B" stroke-width="3" stroke-miterlimit="10" stroke-linecap="round" stroke-linejoin="round"/>
<path d="M354.955 127.894C355.915 134.265 354.87 141.203 350.809 146.205C346.749 151.208 339.29 153.652 333.512 150.802" stroke="#2C223B" stroke-width="3" stroke-miterlimit="10" stroke-linecap="round" stroke-linejoin="round"/>
<path d="M340.954 123.229C339.678 126.587 337.736 129.69 335.273 132.304" stroke="#2C223B" stroke-width="3" stroke-miterlimit="10" stroke-linecap="round" stroke-linejoin="round"/>
<path d="M356.927 156.146C354.265 157.564 351.675 158.163 349.067 157.35C346.46 156.537 344.307 154.392 343.483 151.788" stroke="#2C223B" stroke-width="3" stroke-miterlimit="10" stroke-linecap="round" stroke-linejoin="round"/>
<path d="M318.236 114.876C316.465 117.228 313.809 118.896 310.922 119.47C308.035 120.044 304.943 119.518 302.407 118.023" stroke="#2C223B" stroke-width="3" stroke-miterlimit="10" stroke-linecap="round" stroke-linejoin="round"/>
<path d="M345.089 115.051C339.159 117.245 331.98 115.504 327.715 110.837" stroke="#2C223B" stroke-width="3" stroke-miterlimit="10" stroke-linecap="round" stroke-linejoin="round"/>
<path d="M316.061 136.204C312.763 137.967 308.401 137.483 305.57 135.039" stroke="#2C223B" stroke-width="3" stroke-miterlimit="10" stroke-linecap="round" stroke-linejoin="round"/>
<path d="M352.414 143.153C345.606 143.991 338.467 140.196 335.355 134.084" stroke="#2C223B" stroke-width="3" stroke-miterlimit="10" stroke-linecap="round" stroke-linejoin="round"/>
<path d="M364.17 147.825C359.93 149.614 354.59 148.308 351.655 144.764" stroke="#2C223B" stroke-width="3" stroke-miterlimit="10" stroke-linecap="round" stroke-linejoin="round"/>
<path d="M211.663 197.304C216.857 201.481 223.183 204.381 229.823 204.957C236.464 205.533 243.4 203.662 248.473 199.338C253.546 195.014 256.536 188.169 255.678 181.559C254.819 174.949 249.874 168.902 242.363 166.67C240.022 167.96 237.681 169.251 235.341 170.541C238.721 172.24 240.791 176.224 240.238 179.966C239.685 183.708 236.552 186.924 232.825 187.573C229.587 188.137 226.32 186.919 223.335 185.542C218.718 183.411 214.303 180.842 210.169 177.88C208.943 184.471 206.49 193.145 211.663 197.304Z" fill="white" stroke="#2C223B" stroke-width="3" stroke-miterlimit="10" stroke-linecap="round" stroke-linejoin="round"/>
<path d="M207.901 179.887C214.379 181.673 221.234 182.417 227.848 181.225C234.461 180.034 240.824 176.794 245.085 171.597C249.346 166.4 251.28 159.168 249.438 152.705C247.596 146.242 241.712 140.929 234.288 140.483C232.833 142.047 231.378 143.611 228.914 146.271C232.597 147.772 234.651 152.141 234.04 156.071C233.428 160.001 230.521 163.34 226.958 165.108C223.395 166.876 219.261 167.218 215.309 166.77C211.357 166.321 207.534 165.124 203.74 163.933C203.882 169.348 204.995 174.735 207.901 179.887Z" fill="white" stroke="#2C223B" stroke-width="3" stroke-miterlimit="10" stroke-linecap="round" stroke-linejoin="round"/>
<path d="M222.831 131.209C226.279 130.608 229.874 130.873 233.197 131.973C238.09 136.968 238.149 144.225 235.179 149.593C232.209 154.961 226.73 158.583 220.925 160.567C215.12 162.551 208.934 163.08 202.427 163.178C200.189 160.228 198.756 156.673 198.32 152.996C202.642 152.781 207.008 152.559 211.169 151.37C215.33 150.181 219.328 147.92 221.794 144.365C224.26 140.81 224.913 135.833 222.831 131.209Z" fill="white" stroke="#2C223B" stroke-width="3" stroke-miterlimit="10" stroke-linecap="round" stroke-linejoin="round"/>
<path d="M196.439 139.276C201.176 136.63 209.768 129.484 214.639 125.173C214.005 123.16 213.591 121.051 213.73 118.946C213.869 116.841 214.596 114.731 216.019 113.173C218.358 110.612 222.535 109.972 225.533 111.717C228.531 113.462 230.038 117.409 229.646 121.14C232.363 120.78 235.291 121.604 237.173 123.596C239.055 125.588 239.614 128.747 238.385 131.196C235.4 137.141 227.894 136.966 223.801 134.238C217.18 140.136 208.51 147.528 201.126 152.246C200.33 148.642 196.781 143.179 196.439 139.276Z" fill="white" stroke="#2C223B" stroke-width="3" stroke-miterlimit="10" stroke-linecap="round" stroke-linejoin="round"/>
<path d="M195.21 204.384C199.875 209.676 209.643 208.889 213.4 202.919C216.887 197.378 215.054 190.162 212.985 183.95C208.459 170.357 203.302 156.975 197.537 143.859C190.899 146.617 185.751 148.879 179.562 152.087C183.538 169.452 182.621 190.102 195.21 204.384Z" fill="white" stroke="#2C223B" stroke-width="3" stroke-miterlimit="10" stroke-linecap="round" stroke-linejoin="round"/>
<path d="M139.962 197.239C140.983 205.553 146.001 213.338 153.301 217.934C160.601 222.529 170.048 223.849 178.413 221.443C186.778 219.037 193.906 212.949 197.82 204.783C198.375 202.141 197.839 199.303 196.352 197.016C194.865 194.729 192.444 193.016 188.811 192.276C186.923 195.868 184.753 199.381 181.783 202.222C178.813 205.063 174.957 207.201 170.779 207.565C166.6 207.929 162.131 206.299 159.784 202.965L139.962 197.239Z" fill="white" stroke="#2C223B" stroke-width="3" stroke-miterlimit="10" stroke-linecap="round" stroke-linejoin="round"/>
<path d="M133.763 173.57C129.611 179.457 129.414 187.047 133.164 193.194C140.467 205.167 173.151 209.139 189.608 192.681C192.097 190.192 192.639 186.195 191.582 182.886C190.525 179.576 187.796 175.855 183.358 175.003C178.51 180.727 171.33 185.672 163.754 186.906C159.973 187.522 147.382 188.161 147.961 179.39L133.763 173.57Z" fill="white" stroke="#2C223B" stroke-width="3" stroke-miterlimit="10" stroke-linecap="round" stroke-linejoin="round"/>
<path d="M130.962 152.261C123.549 158.844 123.09 170.736 131.202 177.592C139.858 184.908 170.755 179.843 183.552 173.4C185.788 170.961 186.819 167.502 186.276 164.263C185.733 161.024 183.627 158.073 178.656 157.458C171.821 161.333 164.044 163.59 156.163 163.985C152.494 164.169 148.591 163.887 145.567 161.839C142.542 159.791 140.859 155.483 142.797 152.416C137.685 152.318 135.723 152.204 130.962 152.261Z" fill="white" stroke="#2C223B" stroke-width="3" stroke-miterlimit="10" stroke-linecap="round" stroke-linejoin="round"/>
<path d="M179.562 143.86C174.163 144.408 148.039 142.351 141.576 141.612C140.941 139.6 140.071 137.634 138.751 135.989C137.43 134.343 135.625 133.032 133.566 132.571C130.181 131.813 126.392 133.684 124.936 136.832C123.48 139.98 124.508 144.079 126.969 146.911C124.537 148.174 122.61 150.528 122.21 153.238C121.81 155.949 123.128 158.924 125.574 160.159C130.781 162.788 134.314 158.653 138.336 155.463C147.142 156.499 172.837 159.244 181.646 158.235C182.819 153.146 181.351 148.686 179.562 143.86Z" fill="white" stroke="#2C223B" stroke-width="3" stroke-miterlimit="10" stroke-linecap="round" stroke-linejoin="round"/>
<path d="M122.614 200.033C124.859 191.627 127.104 183.221 129.349 174.815C132.26 173.639 135.958 172.925 138.832 170.712C141.706 168.499 143.559 164.564 142.739 160.906C142.088 158.003 139.744 155.605 136.979 155.013C134.214 154.421 131.173 155.667 129.506 158.074C127.8 154.962 126.878 152.552 125.418 150.503C123.959 148.454 121.875 146.773 119.472 146.42C115.8 145.881 112.107 148.821 111.144 152.607C110.181 156.393 111.722 160.618 114.758 164.72C112.039 173.344 109.32 181.967 105.598 192.56C102.779 192.416 99.826 193.327 97.856 195.464C95.886 197.601 95.123 201.054 96.418 203.705C97.561 206.046 100.041 207.389 102.511 207.739C104.98 208.089 107.479 207.596 110.889 208.23C111.141 211.806 113.054 215.319 116.085 216.926C119.117 218.532 123.197 217.891 125.349 215.12C127.259 212.66 127.406 209.126 126.754 206.018C126.177 203.266 124.686 200.322 122.614 200.033Z" fill="white" stroke="#2C223B" stroke-width="3" stroke-miterlimit="10" stroke-linecap="round" stroke-linejoin="round"/>
<path d="M108.247 225.181C111.156 223.723 114.848 219.294 115.439 216.018C116.029 212.742 114.541 209.037 111.635 207.56C109.236 206.341 106.276 206.757 103.946 208.1C101.616 209.443 99.8305 211.602 98.3365 213.88C92.8845 214.209 88.7085 213.025 85.0165 210.929C86.9755 207.598 87.6465 202.811 85.7355 199.302C83.8245 195.793 79.5035 193.878 75.7205 194.865C73.0715 195.556 70.8325 197.501 69.3805 199.882C67.9285 202.264 67.2075 205.055 64.9515 208.609C62.2525 206.899 58.6345 206.864 55.9115 208.523C53.1885 210.182 51.4805 213.461 51.6435 216.716C51.8065 219.972 53.8325 223.061 56.7065 224.436C60.7245 226.358 65.4215 224.927 71.9125 224.095C78.5525 227.607 85.3895 230.724 92.5705 233.908C93.1665 237.91 95.8975 241.637 99.6545 242.839C103.412 244.041 107.986 242.305 109.673 238.654C110.604 236.639 110.637 234.281 110.184 232.096C109.73 229.909 108.823 227.856 108.247 225.181Z" fill="white" stroke="#2C223B" stroke-width="3" stroke-miterlimit="10" stroke-linecap="round" stroke-linejoin="round"/>
<path d="M79.7168 215.587C82.4288 214.193 84.6418 211.853 85.8818 209.068" stroke="#2C223B" stroke-width="3" stroke-miterlimit="10" stroke-linecap="round" stroke-linejoin="round"/>
<path d="M61.87 209.712C67.748 211.27 74.223 208.494 78.102 203.811C81.982 199.129 83.542 192.869 83.598 186.789C83.653 180.709 82.329 174.71 80.38 169.505C78.004 156.278 78.054 142.619 80.526 129.41C80.904 127.39 81.34 125.346 81.165 123.298C80.989 121.25 80.094 119.152 78.355 118.056C75.218 116.08 71.049 118.162 68.495 120.848C63.093 126.529 60.99 134.721 61.144 142.558C61.299 150.395 63.479 158.034 64.651 165.64C56.382 155.13 50.063 143.089 46.112 130.313C44.987 126.677 43.507 122.406 39.843 121.379C37.198 120.638 34.295 122.062 32.642 124.256C30.989 126.45 30.383 129.26 30.161 131.998C29.295 142.684 33.978 153.67 41.521 161.334C39.083 160.215 36.068 160.468 33.849 161.976C31.631 163.484 30.287 166.195 29.531 169.806C25.25 169.65 21.403 173.224 20.413 177.392C19.424 181.56 20.879 186.025 23.428 189.468C25.977 192.91 29.674 196.351 34.248 197.337C35.632 203.054 39.088 209.282 44.583 211.382C50.079 213.482 56.585 212.704 61.87 209.712Z" fill="white" stroke="#2C223B" stroke-width="3" stroke-miterlimit="10" stroke-linecap="round" stroke-linejoin="round"/>
<path d="M76.4554 174.236C70.6194 171.196 65.7774 166.284 62.8234 160.404C62.0544 158.873 61.3424 157.197 59.9264 156.233C57.9864 154.912 55.1994 155.41 53.4134 156.932C51.6274 158.455 50.7064 160.776 50.2904 163.086C48.9034 170.796 52.9874 179.179 58.8084 182.366C55.6904 185.783 54.0234 190.484 54.2934 195.102C54.5624 199.72 56.7644 204.195 60.2584 207.227" fill="white"/>
<path d="M76.4554 174.236C70.6194 171.196 65.7774 166.284 62.8234 160.404C62.0544 158.873 61.3424 157.197 59.9264 156.233C57.9864 154.912 55.1994 155.41 53.4134 156.932C51.6274 158.455 50.7064 160.776 50.2904 163.086C48.9034 170.796 52.9874 179.179 58.8084 182.366C55.6904 185.783 54.0234 190.484 54.2934 195.102C54.5624 199.72 56.7644 204.195 60.2584 207.227" stroke="#2C223B" stroke-width="3" stroke-miterlimit="10" stroke-linecap="round" stroke-linejoin="round"/>
<path d="M58.4707 182.289C61.6087 184.407 66.0777 184.315 69.1257 182.068C72.1727 179.821 73.5827 175.579 72.4867 171.955" stroke="#2C223B" stroke-width="3" stroke-miterlimit="10" stroke-linecap="round" stroke-linejoin="round"/>
<path d="M29.2197 169.234C29.7257 175.658 32.3137 182.178 37.4007 186.133C42.4877 190.087 50.3057 190.781 55.2897 186.698" stroke="#2C223B" stroke-width="3" stroke-miterlimit="10" stroke-linecap="round" stroke-linejoin="round"/>
<path d="M41.8018 161.523C43.8038 164.505 46.3978 167.088 49.3888 169.078" stroke="#2C223B" stroke-width="3" stroke-miterlimit="10" stroke-linecap="round" stroke-linejoin="round"/>
<path d="M33.6895 197.2C36.6035 197.979 39.2614 197.977 41.6174 196.595C43.9734 195.213 45.5854 192.637 45.7984 189.914" stroke="#2C223B" stroke-width="3" stroke-miterlimit="10" stroke-linecap="round" stroke-linejoin="round"/>
<path d="M62.041 148.247C64.298 150.137 67.262 151.161 70.204 151.067C73.146 150.973 76.039 149.761 78.17 147.731" stroke="#2C223B" stroke-width="3" stroke-miterlimit="10" stroke-linecap="round" stroke-linejoin="round"/>
<path d="M35.9248 154.492C42.1968 155.288 48.7958 151.968 51.8958 146.457" stroke="#2C223B" stroke-width="3" stroke-miterlimit="10" stroke-linecap="round" stroke-linejoin="round"/>
<path d="M68.9844 168.53C72.5964 169.501 76.7354 168.043 78.9394 165.022" stroke="#2C223B" stroke-width="3" stroke-miterlimit="10" stroke-linecap="round" stroke-linejoin="round"/>
<path d="M35.1455 183.523C41.9665 182.799 48.0615 177.487 49.7105 170.829" stroke="#2C223B" stroke-width="3" stroke-miterlimit="10" stroke-linecap="round" stroke-linejoin="round"/>
<path d="M24.752 190.734C29.287 191.517 34.193 189.037 36.25 184.921" stroke="#2C223B" stroke-width="3" stroke-miterlimit="10" stroke-linecap="round" stroke-linejoin="round"/>
<path d="M190.885 132.381C190.979 123.559 190.694 114.732 190.804 105.877C193.612 102.935 197.937 101.526 203.024 103.512C202.214 112.525 201.405 121.539 200.596 130.552C197.365 130.798 194.172 131.532 190.885 132.381Z" fill="#C8B5EB" stroke="#2C223B" stroke-width="3" stroke-miterlimit="10" stroke-linecap="round" stroke-linejoin="round"/>
<path d="M219.709 76.9089C229.472 64.4359 230.229 46.1569 223.1 32.0129C215.971 17.8679 201.839 7.91685 186.477 4.05885C171.114 0.200854 154.686 2.03685 139.747 7.30285C126.531 11.9609 114.083 19.4199 105.001 30.0909C95.9195 40.7619 90.4455 54.8279 91.5925 68.7939C92.7395 82.7599 101.04 96.3048 113.709 102.293" fill="white"/>
<mask id="mask0_140_32" style="mask-type:luminance" maskUnits="userSpaceOnUse" x="91" y="2" width="137" height="101">
<path d="M219.709 76.9089C229.472 64.4359 230.229 46.1569 223.1 32.0129C215.971 17.8679 201.839 7.91685 186.477 4.05885C171.114 0.200854 154.686 2.03685 139.747 7.30285C126.531 11.9609 114.083 19.4199 105.001 30.0909C95.9195 40.7619 90.4455 54.8279 91.5925 68.7939C92.7395 82.7599 101.04 96.3048 113.709 102.293" fill="white"/>
</mask>
<g mask="url(#mask0_140_32)">
<path d="M98.2877 28.5239C88.1967 46.6469 93.9657 71.0179 108.941 85.3719C123.916 99.7259 146.178 104.777 166.743 102.065C154.872 113.573 136.8 118.258 120.833 113.966C104.866 109.674 91.5787 96.5599 87.0767 80.6509C82.5767 64.7409 87.0237 46.6099 98.2877 28.5239Z" fill="#E6D7FC"/>
</g>
<path d="M219.709 76.9089C229.472 64.4359 230.229 46.1569 223.1 32.0129C215.971 17.8679 201.839 7.91685 186.477 4.05885C171.114 0.200854 154.686 2.03685 139.747 7.30285C126.531 11.9609 114.083 19.4199 105.001 30.0909C95.9195 40.7619 90.4455 54.8279 91.5925 68.7939C92.7395 82.7599 101.04 96.3048 113.709 102.293" stroke="#2C223B" stroke-width="3" stroke-miterlimit="10" stroke-linecap="round" stroke-linejoin="round"/>
<path d="M222.884 61.8247C226.287 61.7207 229.813 62.5307 232.488 64.6377C237.399 68.5047 238.251 76.1187 235.436 81.6997C232.621 87.2807 226.891 90.9387 220.886 92.6727C214.881 94.4067 208.537 94.4627 202.286 94.5067C202.286 94.5067 140.236 108.454 138.565 108.267C134.023 110.007 129.43 111.761 124.609 112.408C119.788 113.055 114.645 112.502 110.534 109.903C106.423 107.304 103.595 102.393 104.346 97.5867C105.146 92.4737 109.896 88.5157 115.018 87.7697" fill="white"/>
<mask id="mask1_140_32" style="mask-type:luminance" maskUnits="userSpaceOnUse" x="104" y="61" width="134" height="52">
<path d="M222.884 61.8247C226.287 61.7207 229.813 62.5307 232.488 64.6377C237.399 68.5047 238.251 76.1187 235.436 81.6997C232.621 87.2807 226.891 90.9387 220.886 92.6727C214.881 94.4067 208.537 94.4627 202.286 94.5067C202.286 94.5067 140.236 108.454 138.565 108.267C134.023 110.007 129.43 111.761 124.609 112.408C119.788 113.055 114.645 112.502 110.534 109.903C106.423 107.304 103.595 102.393 104.346 97.5867C105.146 92.4737 109.896 88.5157 115.018 87.7697" fill="white"/>
</mask>
<g mask="url(#mask1_140_32)">
<path d="M106.769 87.6785C105.182 91.1755 106.118 95.4755 108.483 98.5025C110.847 101.529 114.432 103.406 118.134 104.429C126.517 106.746 135.422 105.051 143.95 103.346C162.047 99.7295 180.144 96.1125 198.242 92.4965C206.642 90.8175 215.162 89.0985 222.802 85.2265C230.443 81.3535 237.228 74.9875 239.646 66.7705C243.245 73.5495 240.158 82.3365 234.519 87.5445C228.88 92.7525 221.289 95.1915 213.929 97.3735C187.999 105.06 161.662 111.389 135.04 116.154C128.418 117.339 121.618 118.428 114.999 117.224C108.38 116.02 101.875 112.08 99.3909 105.828C96.9079 99.5755 99.8819 91.1785 106.769 87.6785Z" fill="#E6D7FC"/>
</g>
<path d="M222.884 61.8247C226.287 61.7207 229.813 62.5307 232.488 64.6377C237.399 68.5047 238.251 76.1187 235.436 81.6997C232.621 87.2807 226.891 90.9387 220.886 92.6727C214.881 94.4067 208.537 94.4627 202.286 94.5067C202.286 94.5067 140.236 108.454 138.565 108.267C134.023 110.007 129.43 111.761 124.609 112.408C119.788 113.055 114.645 112.502 110.534 109.903C106.423 107.304 103.595 102.393 104.346 97.5867C105.146 92.4737 109.896 88.5157 115.018 87.7697" stroke="#2C223B" stroke-width="3" stroke-miterlimit="10" stroke-linecap="round" stroke-linejoin="round"/>
<path d="M147.329 102.578C144.734 101.938 141.956 102.448 139.71 103.755C136.567 105.584 135.559 109.638 137.34 112.809C144.395 125.366 152.747 137.283 162.639 149.032C164.857 151.667 167.899 153.488 171.282 154.133C178 155.413 185.158 154.427 191.22 151.246C199.053 147.136 204.91 139.438 206.783 130.793C207.294 128.435 207.433 125.66 205.111 124.178C203.687 123.269 201.864 123.323 200.356 124.083C197.195 125.675 196.171 128.963 194.344 132.134C185.688 135.808 176.196 137.499 166.827 137.504C158.001 127.863 151.68 115.95 147.329 102.578Z" fill="white" stroke="#2C223B" stroke-width="3" stroke-miterlimit="10" stroke-linecap="round" stroke-linejoin="round"/>
<path d="M197.403 135.828C198.137 133.286 198.134 127.5 194.304 125.777C192.371 124.908 189.821 125.321 188.114 126.522C184.212 129.267 184.685 135.032 184.79 136.905" fill="white"/>
<path d="M197.403 135.828C198.137 133.286 198.134 127.5 194.304 125.777C192.371 124.908 189.821 125.321 188.114 126.522C184.212 129.267 184.685 135.032 184.79 136.905" stroke="#2C223B" stroke-width="3" stroke-miterlimit="10" stroke-linecap="round" stroke-linejoin="round"/>
<path d="M159.786 138.117C159.676 135.829 159.578 133.47 160.49 131.365C161.402 129.26 163.593 127.454 166.202 127.522C169.07 127.597 171.456 129.917 172.22 132.37C172.984 134.823 172.289 138.028 171.805 140.485" fill="white"/>
<path d="M159.786 138.117C159.676 135.829 159.578 133.47 160.49 131.365C161.402 129.26 163.593 127.454 166.202 127.522C169.07 127.597 171.456 129.917 172.22 132.37C172.984 134.823 172.289 138.028 171.805 140.485" stroke="#2C223B" stroke-width="3" stroke-miterlimit="10" stroke-linecap="round" stroke-linejoin="round"/>
<path d="M185.808 138.828C186.01 136.97 186.195 135.08 185.776 133.256C185.358 131.433 184.247 129.655 182.411 128.754C180.302 127.719 177.529 128.049 175.534 129.286C173.539 130.523 172.279 132.541 171.755 134.638C171.231 136.734 171.383 138.914 171.768 141.025" fill="white"/>
<path d="M185.808 138.828C186.01 136.97 186.195 135.08 185.776 133.256C185.358 131.433 184.247 129.655 182.411 128.754C180.302 127.719 177.529 128.049 175.534 129.286C173.539 130.523 172.279 132.541 171.755 134.638C171.231 136.734 171.383 138.914 171.768 141.025" stroke="#2C223B" stroke-width="3" stroke-miterlimit="10" stroke-linecap="round" stroke-linejoin="round"/>
<path d="M142.186 100.407C145.149 106.051 150.029 110.666 155.829 113.31C158.341 114.455 161.254 115.235 163.837 114.26C166.42 113.285 168.178 109.925 166.654 107.623C168.638 111.172 172.053 114.292 176.116 114.445C180.179 114.599 184.29 110.578 183.081 106.697C184.145 110.278 188.163 112.701 191.827 111.972C195.491 111.243 198.275 107.466 197.7 103.339C197.859 106.377 200.894 108.792 203.935 108.756C206.976 108.72 209.751 106.604 211.116 103.886C212.481 101.168 212.593 97.956 212.016 94.97C211.439 91.984 210.219 89.166 209.006 86.376" fill="white"/>
<path d="M142.186 100.407C145.149 106.051 150.029 110.666 155.829 113.31C158.341 114.455 161.254 115.235 163.837 114.26C166.42 113.285 168.178 109.925 166.654 107.623C168.638 111.172 172.053 114.292 176.116 114.445C180.179 114.599 184.29 110.578 183.081 106.697C184.145 110.278 188.163 112.701 191.827 111.972C195.491 111.243 198.275 107.466 197.7 103.339C197.859 106.377 200.894 108.792 203.935 108.756C206.976 108.72 209.751 106.604 211.116 103.886C212.481 101.168 212.593 97.956 212.016 94.97C211.439 91.984 210.219 89.166 209.006 86.376" stroke="#2C223B" stroke-width="3" stroke-miterlimit="10" stroke-linecap="round" stroke-linejoin="round"/>
<path d="M145.816 97.2271C143.56 99.3421 140.684 100.787 137.641 101.336" stroke="#2C223B" stroke-width="3" stroke-miterlimit="10" stroke-linecap="round" stroke-linejoin="round"/>
<path d="M149.091 42.8571C143.638 37.7501 134.722 37.3251 128.246 41.0491C121.77 44.7731 117.757 52.0191 116.928 59.4441C116.099 66.8681 118.177 74.4061 121.884 81.9161C128.222 86.8161 136.441 89.5761 144.359 88.3561C152.277 87.1371 159.639 81.5501 161.958 73.8821C163.503 68.7731 162.793 63.1991 161.023 58.1641C159.084 52.6481 154.979 48.3721 149.091 42.8571Z" fill="#4629F2" fill-opacity="0.66"/>
<path d="M126.222 41.257C132.08 36.385 140.752 35.524 147.787 38.45C154.822 41.376 160.157 47.732 162.61 54.946C165.063 62.16 164.794 70.132 162.674 77.451C161.758 67.176 160.522 56.13 153.656 48.43C146.519 40.426 133.752 38.13 124.273 43.144C124.714 42.403 125.344 41.987 126.222 41.257Z" fill="#C8B5EB"/>
<path d="M144.832 37.605C137.592 35.038 129.085 37.776 123.841 43.39C118.597 49.004 116.412 57.032 116.893 64.699C117.157 68.909 118.16 73.022 119.845 77.068C122.595 83.674 128.897 88.033 136.044 88.365C139.513 88.526 142.978 88.322 146.365 87.555C153.258 85.993 159.827 81.789 162.85 75.4" stroke="#2C223B" stroke-width="3" stroke-miterlimit="10" stroke-linecap="round" stroke-linejoin="round"/>
<path d="M159.933 79.8128C163.051 73.0568 161.526 64.3758 158.758 57.4688C155.99 50.5608 150.485 44.6388 143.501 42.0688C136.517 39.4988 127.351 39.9668 121.447 46.4298" stroke="#2C223B" stroke-width="3" stroke-miterlimit="10" stroke-linecap="round" stroke-linejoin="round"/>
<path d="M179.698 28.758C173.556 38.04 172.27 50.353 176.362 60.704C177.476 63.523 179.001 66.246 181.256 68.273C183.573 70.356 186.526 71.589 189.498 72.523C192.912 73.596 196.475 74.328 200.05 74.184C203.626 74.04 207.23 72.971 210.19 69.985C212.09 63.794 213.027 57.237 212.236 50.809C211.445 44.382 208.845 38.085 204.355 33.418C199.865 28.751 193.408 25.856 186.945 26.259C184.369 26.42 181.131 26.591 179.698 28.758Z" fill="#4629F2" fill-opacity="0.66"/>
<path d="M196.962 22.6399C203.675 23.9139 208.549 29.9159 211.181 36.2219C215.02 45.4189 215.275 56.0579 211.881 65.4279C212.495 57.6969 213.064 49.6449 210.194 42.4399C208.114 37.2179 204.245 32.7269 199.388 29.8969C194.531 27.0669 188.716 25.9169 183.147 26.6829C186.347 23.4979 191.116 21.5309 196.962 22.6399Z" fill="#C8B5EB"/>
<path d="M198.854 23.5438C192.905 20.5468 185.238 22.6328 180.57 27.3848C175.902 32.1378 173.909 39.0118 173.778 45.6718C173.682 50.5278 174.477 55.3338 175.866 60.1748C177.05 64.3008 179.73 67.8598 183.453 69.9968C186.572 71.7868 190.027 72.9938 193.588 73.5038C199.561 74.3588 205.8 73.2478 211.11 70.3838" stroke="#2C223B" stroke-width="3" stroke-miterlimit="10" stroke-linecap="round" stroke-linejoin="round"/>
<path d="M178.778 29.4907C185.081 25.0997 193.322 25.3227 199.825 29.4117C206.328 33.4997 210.458 40.7487 211.835 48.3057C213.212 55.8627 212.057 63.7037 209.724 71.0217" stroke="#2C223B" stroke-width="3" stroke-miterlimit="10" stroke-linecap="round" stroke-linejoin="round"/>
<path d="M172.695 79.1097C171.549 80.5187 170.392 81.9447 169.614 83.5857C168.836 85.2267 168.463 87.1287 168.961 88.8757C169.459 90.6217 170.96 92.1407 172.769 92.3067C175.087 92.5207 177.134 90.4967 177.77 88.2567C179.215 89.5137 181.084 90.7207 182.921 90.1767C184.664 89.6607 185.636 87.6207 185.381 85.8207C185.126 84.0217 183.902 82.4897 182.472 81.3677C179.986 79.4167 176.741 78.4587 172.695 79.1097Z" fill="#786997" stroke="#2C223B" stroke-width="3" stroke-miterlimit="10" stroke-linecap="round" stroke-linejoin="round"/>
<path d="M163.083 379.506C165.404 371.652 168.739 364.121 172.965 357.191C177.804 358.111 181.945 357.648 185.001 355.252C188.057 352.856 189.735 348.387 188.52 344.624C187.575 341.697 185.053 339.549 182.242 338.727C179.431 337.905 176.378 338.29 173.598 339.322C171.717 334.444 169.366 330.709 165.837 328.771C162.308 326.833 157.441 327.189 154.794 330.428C153.089 332.515 152.538 335.498 153.069 338.168C153.6 340.838 155.126 343.193 158.174 346.744C155.288 355.084 151.47 363.074 145.107 372.327C141.778 371.882 138.138 372.632 135.642 375.073C133.146 377.514 132.194 381.85 134.051 384.794C137.345 390.015 143.747 388.806 148.459 387.91C149.792 391.264 150.808 393.917 153.444 395.391C156.08 396.865 159.472 396.835 162.051 395.154C164.629 393.474 166.233 390.145 165.826 386.994C165.482 384.341 163.886 382.112 163.083 379.506Z" fill="white" stroke="#2C223B" stroke-width="3" stroke-miterlimit="10" stroke-linecap="round" stroke-linejoin="round"/>
<path d="M186.74 320.553C187.745 312.432 189.806 304.465 192.847 296.95C197.782 297.083 201.8 295.963 204.429 293.109C207.058 290.256 207.983 285.577 206.163 282.058C204.748 279.321 201.902 277.606 198.988 277.244C196.074 276.883 193.119 277.752 190.539 279.216C187.878 274.704 184.941 271.395 181.133 270.047C177.325 268.7 172.571 269.83 170.487 273.451C169.144 275.783 169.089 278.816 170.052 281.365C171.015 283.914 172.911 285.994 176.508 289.01C175.024 297.702 172.561 306.198 167.788 316.347C164.423 316.441 160.948 317.764 158.881 320.573C156.814 323.382 156.585 327.813 158.904 330.42C163.018 335.044 169.15 332.826 173.661 331.188C175.53 334.284 176.97 336.74 179.818 337.772C182.666 338.805 186.015 338.231 188.289 336.16C190.563 334.089 191.601 330.547 190.682 327.503C189.906 324.94 187.962 322.996 186.74 320.553Z" fill="white" stroke="#2C223B" stroke-width="3" stroke-miterlimit="10" stroke-linecap="round" stroke-linejoin="round"/>
<path d="M107.619 400.398C107.11 399.784 106.558 399.205 105.926 398.655C104.461 397.381 102.383 397.145 100.594 397.916C98.97 398.616 97.177 398.999 95.43 399.362C92.317 400.009 89.058 400.724 86.873 403.186C85.626 404.592 85.002 406.505 85.535 408.299C86.408 411.235 89.669 412.116 92.536 412.421C97.116 412.909 101.775 412.672 106.28 411.722C106.543 408.235 106.806 404.747 107.619 400.398Z" fill="white" stroke="#2C223B" stroke-width="3" stroke-miterlimit="10" stroke-linecap="round" stroke-linejoin="round"/>
<path d="M157.26 412.909C163.885 412.909 166.739 404.042 162.839 398.75C157.302 391.238 149.014 385.669 139.803 383.715C126.426 380.878 117.989 388.054 102.198 397.419C104.072 402.008 106.797 406.257 111.64 411.936C128.081 413.078 144.779 412.909 157.26 412.909Z" fill="white" stroke="#2C223B" stroke-width="3" stroke-miterlimit="10" stroke-linecap="round" stroke-linejoin="round"/>
<path d="M119.854 386.977C127.342 384.495 134.179 385.523 139.721 391.008C145.264 396.493 147.203 405.146 144.509 412.373" stroke="#2C223B" stroke-width="3" stroke-miterlimit="10" stroke-linecap="round" stroke-linejoin="round"/>
<path d="M115.69 398.799C113.78 398.244 111.827 397.833 109.653 397.707C107.554 397.585 105.519 398.261 103.789 399.442C102.149 400.561 100.057 401.149 98.1432 401.842C95.1842 402.914 91.9742 404.996 92.3772 408.338C92.5022 409.379 93.0092 410.348 93.7312 411.116C95.4652 412.961 97.9392 413.566 100.359 413.839C105.085 414.373 109.939 413.762 114.379 412.075C115.223 411.754 116.115 411.34 116.534 410.549C116.898 409.86 116.825 409.034 116.742 408.262C116.409 405.175 116.078 402.089 115.69 398.799Z" fill="white" stroke="#2C223B" stroke-width="3" stroke-miterlimit="10" stroke-linecap="round" stroke-linejoin="round"/>
<path d="M126.699 411.79C123.28 412.996 119.791 414.216 116.163 414.318C111.74 414.443 106.976 412.633 105.263 408.272C104.376 406.013 104.684 403.396 106.293 401.566C109.265 398.187 114.193 399.642 118.468 398.498C119.81 398.139 121.25 398.349 122.377 399.153C124.001 400.312 125.333 401.873 126.191 403.662C127.419 406.225 127.665 409.233 126.699 411.79Z" fill="white" stroke="#2C223B" stroke-width="3" stroke-miterlimit="10" stroke-linecap="round" stroke-linejoin="round"/>
<path d="M251.285 376.513C249.82 368.462 249.403 360.254 250.051 352.196C254.775 350.9 258.255 348.672 259.9 345.188C261.545 341.704 261.029 336.965 258.254 334.127C256.096 331.919 252.883 331.1 250.01 331.594C247.136 332.089 244.591 333.771 242.579 335.913C238.71 332.368 234.936 330.052 230.921 329.862C226.906 329.672 222.731 332.122 221.83 336.183C221.25 338.799 222.101 341.713 223.774 343.872C225.448 346.031 227.866 347.472 232.178 349.318C233.358 358.052 233.551 366.882 232.044 377.957C228.878 379.017 225.974 381.282 224.849 384.563C223.724 387.844 224.826 392.144 227.804 393.967C233.086 397.201 238.245 393.314 242.039 390.448C244.735 392.869 246.833 394.8 249.844 394.966C252.855 395.132 255.863 393.619 257.404 390.984C258.945 388.349 258.876 384.665 257.096 382.021C255.597 379.793 253.173 378.496 251.285 376.513Z" fill="white" stroke="#2C223B" stroke-width="3" stroke-miterlimit="10" stroke-linecap="round" stroke-linejoin="round"/>
<path d="M254.195 315.779C253.503 307.627 253.87 299.417 255.282 291.454C260.11 290.603 263.788 288.707 265.759 285.39C267.729 282.073 267.667 277.308 265.174 274.225C263.235 271.827 260.113 270.713 257.204 270.939C254.295 271.165 251.599 272.604 249.391 274.55C245.875 270.662 242.337 268.005 238.356 267.444C234.375 266.882 229.983 268.934 228.7 272.894C227.873 275.445 228.443 278.425 229.904 280.729C231.365 283.033 233.637 284.693 237.756 286.93C238.099 295.735 237.45 304.544 234.895 315.43C231.641 316.191 228.533 318.177 227.099 321.339C225.666 324.501 226.354 328.884 229.146 330.976C234.098 334.685 239.607 331.295 243.659 328.793C246.113 331.453 248.019 333.571 251.002 334.015C253.985 334.459 257.125 333.232 258.91 330.752C260.695 328.272 260.978 324.597 259.458 321.8C258.177 319.445 255.887 317.929 254.195 315.779Z" fill="white" stroke="#2C223B" stroke-width="3" stroke-miterlimit="10" stroke-linecap="round" stroke-linejoin="round"/>
<path d="M278.188 400.398C278.697 399.784 279.249 399.205 279.881 398.655C281.346 397.381 283.424 397.145 285.213 397.916C286.837 398.616 288.63 398.999 290.377 399.362C293.49 400.009 296.749 400.724 298.934 403.186C300.181 404.592 300.806 406.505 300.272 408.299C299.399 411.235 296.138 412.116 293.271 412.421C288.691 412.909 284.032 412.672 279.527 411.722C279.264 408.235 279.001 404.747 278.188 400.398Z" fill="white" stroke="#2C223B" stroke-width="3" stroke-miterlimit="10" stroke-linecap="round" stroke-linejoin="round"/>
<path d="M228.548 412.909C221.923 412.909 219.069 404.042 222.969 398.75C228.506 391.238 236.794 385.669 246.005 383.715C259.382 380.878 267.819 388.054 283.61 397.419C281.736 402.008 279.011 406.257 274.168 411.936C257.728 413.078 241.029 412.909 228.548 412.909Z" fill="white" stroke="#2C223B" stroke-width="3" stroke-miterlimit="10" stroke-linecap="round" stroke-linejoin="round"/>
<path d="M265.956 386.978C258.468 384.496 251.631 385.524 246.089 391.009C240.546 396.494 238.607 405.147 241.301 412.374" stroke="#2C223B" stroke-width="3" stroke-miterlimit="10" stroke-linecap="round" stroke-linejoin="round"/>
<path d="M270.118 398.799C272.028 398.244 273.981 397.834 276.156 397.708C278.255 397.586 280.289 398.261 282.02 399.442C283.66 400.561 285.752 401.149 287.666 401.842C290.625 402.914 293.835 404.996 293.433 408.338C293.308 409.379 292.801 410.349 292.079 411.117C290.345 412.962 287.871 413.566 285.451 413.839C280.725 414.373 275.871 413.762 271.431 412.075C270.587 411.754 269.695 411.34 269.276 410.549C268.911 409.86 268.985 409.035 269.068 408.263C269.399 405.176 269.73 402.089 270.118 398.799Z" fill="white" stroke="#2C223B" stroke-width="3" stroke-miterlimit="10" stroke-linecap="round" stroke-linejoin="round"/>
<path d="M259.11 411.79C262.529 412.996 266.018 414.216 269.646 414.318C274.069 414.443 278.833 412.633 280.546 408.272C281.433 406.013 281.125 403.396 279.516 401.566C276.544 398.187 271.616 399.642 267.341 398.498C265.999 398.139 264.559 398.349 263.432 399.153C261.808 400.312 260.476 401.873 259.618 403.662C258.389 406.225 258.143 409.233 259.11 411.79Z" fill="white" stroke="#2C223B" stroke-width="3" stroke-miterlimit="10" stroke-linecap="round" stroke-linejoin="round"/>
</svg>
